<?xml version="1.0" encoding="UTF-8"?>
<svg xmlns="http://www.w3.org/2000/svg" width="88" height="88" viewBox="0 0 88 88" fill="none">
  <g filter="url(#filter0_d_212_2200)">
    <circle cx="44" cy="42" r="40" fill="#F7FBFE"></circle>
  </g>
  <path d="M61 28.6667H49V62H63.6666V31.3333C63.6666 30.6261 63.3857 29.9478 62.8856 29.4477C62.3855 28.9476 61.7072 28.6667 61 28.6667ZM54.3333 51.3333H51.6667V48.6667H54.3333V51.3333ZM54.3333 44.6667H51.6667V42H54.3333V44.6667ZM54.3333 38H51.6667V35.3333H54.3333V38ZM59.6667 51.3333H57V48.6667H59.6667V51.3333ZM59.6667 44.6667H57V42H59.6667V44.6667ZM59.6667 38H57V35.3333H59.6667V38Z" fill="#024751"></path>
  <path d="M43.5066 22H27.8267C27.077 22 26.358 22.2978 25.8279 22.8279C25.2978 23.358 25 24.077 25 24.8267V61.9999H31.6667V57.9999H39.6666V61.9999H46.3333V24.8267C46.3333 24.077 46.0355 23.358 45.5054 22.8279C44.9753 22.2978 44.2563 22 43.5066 22ZM31.6667 51.3333H29V48.6666H31.6667V51.3333ZM31.6667 44.6666H29V42H31.6667V44.6666ZM31.6667 38H29V35.3333H31.6667V38ZM31.6667 31.3333H29V28.6667H31.6667V31.3333ZM37 51.3333H34.3333V48.6666H37V51.3333ZM37 44.6666H34.3333V42H37V44.6666ZM37 38H34.3333V35.3333H37V38ZM37 31.3333H34.3333V28.6667H37V31.3333ZM42.3333 51.3333H39.6666V48.6666H42.3333V51.3333ZM42.3333 44.6666H39.6666V42H42.3333V44.6666ZM42.3333 38H39.6666V35.3333H42.3333V38ZM42.3333 31.3333H39.6666V28.6667H42.3333V31.3333Z" fill="#024751"></path>
  <defs>
    <filter id="filter0_d_212_2200" x="0" y="0" width="88" height="88" color-interpolation-filters="sRGB">
      <feFlood flood-opacity="0" result="BackgroundImageFix"></feFlood>
      <feColorMatrix in="SourceAlpha" type="matrix" values="0 0 0 0 0 0 0 0 0 0 0 0 0 0 0 0 0 0 127 0" result="hardAlpha"></feColorMatrix>
      <feOffset dy="2"></feOffset>
      <feGaussianBlur stdDeviation="2"></feGaussianBlur>
      <feComposite in2="hardAlpha" operator="out"></feComposite>
      <feColorMatrix type="matrix" values="0 0 0 0 0.00784314 0 0 0 0 0.278431 0 0 0 0 0.317647 0 0 0 0.15 0"></feColorMatrix>
      <feBlend mode="normal" in2="BackgroundImageFix" result="effect1_dropShadow_212_2200"></feBlend>
      <feBlend mode="normal" in="SourceGraphic" in2="effect1_dropShadow_212_2200" result="shape"></feBlend>
    </filter>
  </defs>
</svg>
