<svg xmlns="http://www.w3.org/2000/svg" width="75" height="75" viewBox="0 0 75 75" fill="none"><path d="M73.9922 2.79694C73.818 1.98669 73.0169 1.18561 72.2041 1.01166C67.4877 0 63.795 0 60.1183 0C44.9964 0 35.9281 8.08639 29.1581 18.75H13.8922C11.4976 18.7523 8.68376 20.4895 7.61002 22.6295L0.368499 37.104C0.144711 37.5977 0.0195323 38.1302 0 38.6719C0.000336718 39.6043 0.370957 40.4985 1.03038 41.1577C1.68979 41.817 2.58403 42.1874 3.51648 42.1875H18.7231L15.4309 45.4788C13.7661 47.1431 13.5272 50.2041 15.4309 52.1072L22.8876 59.5642C24.5218 61.203 27.598 61.4914 29.52 59.5642L32.8122 56.2729V71.4844C32.8125 72.4168 33.1831 73.311 33.8425 73.9702C34.5019 74.6295 35.3962 74.9999 36.3286 75C36.8704 74.9799 37.403 74.8548 37.897 74.6315L52.3592 67.3965C54.5021 66.3277 56.2422 63.5147 56.2422 61.1183V45.8199C66.8766 39.0358 74.9973 29.94 74.9973 14.8979C75.011 11.2061 75.011 7.51419 73.9922 2.79694ZM56.2559 24.6094C55.0971 24.6091 53.9644 24.2652 53.001 23.6212C52.0376 22.9772 51.2868 22.062 50.8436 20.9913C50.4003 19.9206 50.2845 18.7425 50.5107 17.606C50.737 16.4695 51.2951 15.4256 52.1146 14.6063C52.9341 13.787 53.9782 13.2291 55.1147 13.0031C56.2513 12.7771 57.4294 12.8933 58.4999 13.3368C59.5705 13.7803 60.4855 14.5313 61.1293 15.4949C61.7731 16.4584 62.1167 17.5912 62.1167 18.75C62.1158 20.304 61.498 21.794 60.399 22.8927C59.3001 23.9914 57.8099 24.6088 56.2559 24.6094Z" fill="#024751" fill-opacity="0.75"></path></svg>