<svg xmlns="http://www.w3.org/2000/svg" width="75" height="75" viewBox="0 0 75 75" fill="none"><path d="M37.5 0C16.7843 0 0 16.7843 0 37.5C0 58.2157 16.7843 75 37.5 75C58.2157 75 75 58.2157 75 37.5C75 16.7843 58.2157 0 37.5 0ZM37.5 14.5161C44.8488 14.5161 50.8065 20.4738 50.8065 27.8226C50.8065 35.1714 44.8488 41.129 37.5 41.129C30.1512 41.129 24.1935 35.1714 24.1935 27.8226C24.1935 20.4738 30.1512 14.5161 37.5 14.5161ZM37.5 66.5323C28.624 66.5323 20.6704 62.5101 15.3478 56.2198C18.1905 50.8669 23.755 47.1774 30.2419 47.1774C30.6048 47.1774 30.9677 47.2379 31.3155 47.3438C33.2813 47.9788 35.3377 48.3871 37.5 48.3871C39.6623 48.3871 41.7339 47.9788 43.6845 47.3438C44.0323 47.2379 44.3952 47.1774 44.7581 47.1774C51.245 47.1774 56.8095 50.8669 59.6522 56.2198C54.3296 62.5101 46.376 66.5323 37.5 66.5323Z" fill="url(#paint0_linear_117_2191)" fill-opacity="0.8"></path><defs><linearGradient id="paint0_linear_117_2191" x1="37.5" y1="-1.79745e-07" x2="37" y2="75" gradientUnits="userSpaceOnUse"><stop stop-color="#024751"></stop><stop offset="1" stop-color="#024751"></stop></linearGradient></defs></svg>