<svg xmlns="http://www.w3.org/2000/svg" width="66" height="75" viewBox="0 0 66 75" fill="none"><path d="M51.5625 46.875C48.2508 46.875 45.207 48.0204 42.8042 49.9358L27.7916 40.5529C28.2362 38.5419 28.2362 36.458 27.7916 34.447L42.8042 25.0641C45.207 26.9796 48.2508 28.125 51.5625 28.125C59.3289 28.125 65.625 21.829 65.625 14.0625C65.625 6.29604 59.3289 0 51.5625 0C43.796 0 37.5 6.29604 37.5 14.0625C37.5 15.111 37.6157 16.1323 37.8334 17.1154L22.8208 26.4983C20.418 24.5829 17.3742 23.4375 14.0625 23.4375C6.29604 23.4375 0 29.7335 0 37.5C0 45.2665 6.29604 51.5625 14.0625 51.5625C17.3742 51.5625 20.418 50.4171 22.8208 48.5017L37.8334 57.8846C37.6115 58.8871 37.4997 59.9108 37.5 60.9375C37.5 68.704 43.796 75 51.5625 75C59.3289 75 65.625 68.704 65.625 60.9375C65.625 53.171 59.3289 46.875 51.5625 46.875Z" fill="#024751" fill-opacity="0.75"></path></svg>