<?xml version="1.0" encoding="UTF-8"?>
<svg xmlns="http://www.w3.org/2000/svg" width="150" height="13" viewBox="0 0 150 13" fill="none">
  <path d="M74.7021 12.6591H69.547V0.183201H74.7021V12.6591ZM70.0504 12.2034H74.1986V0.638925H70.0504V12.2034ZM81.875 12.6591H76.8235V0.183201H87.3769C88.8894 0.0723692 90.3948 0.456636 91.6206 1.266C92.1475 1.70286 92.5568 2.24417 92.8153 2.84764C93.0737 3.45111 93.1743 4.10043 93.1099 4.745C93.1843 5.85879 92.7931 6.95727 92.0128 7.82114C91.0896 8.77998 89.5531 9.27399 87.4473 9.2913C86.9164 9.30407 82.9402 9.2913 81.878 9.2913L81.875 12.6591ZM77.3239 12.2034H81.3715V8.83102H81.6243C81.6756 8.83102 86.8379 8.84561 87.4353 8.83102C89.3972 8.81553 90.8081 8.3753 91.6327 7.5158C92.3265 6.73414 92.6714 5.74495 92.599 4.74409C92.6614 4.16659 92.5749 3.58391 92.3476 3.04123C92.1214 2.49864 91.7594 2.01065 91.2898 1.61509C90.1544 0.876904 88.7637 0.530372 87.3699 0.638015H77.3269L77.3239 12.2034ZM86.308 6.4886H81.3373V3.09254H86.3412C86.6961 3.04815 87.0572 3.08562 87.392 3.20146C87.7259 3.31731 88.0225 3.5078 88.2548 3.75517C88.464 4.07135 88.5636 4.43784 88.5384 4.80607C88.5575 5.14795 88.4761 5.48829 88.3021 5.79225C88.0628 6.05284 87.754 6.25336 87.4051 6.37467C87.0561 6.49598 86.678 6.53399 86.308 6.48495V6.4886ZM81.8407 6.03288H86.308C87.1336 6.03288 87.6454 5.87702 87.8717 5.55619C87.9964 5.32295 88.0527 5.06464 88.0356 4.80607C88.0577 4.53445 87.9934 4.26294 87.8486 4.02405L87.8425 4.01584C87.6032 3.69683 87.1265 3.54827 86.3412 3.54827H81.8407V6.03288ZM102.297 12.8432C97.7759 12.8432 95.0779 11.827 94.0501 9.737C93.8822 9.33332 93.7676 8.91287 93.7092 8.48467L93.665 8.22218H99.044L99.0792 8.41358C99.1204 8.6079 99.2119 8.79083 99.3446 8.94769C99.5578 9.18011 100.266 9.57021 102.618 9.57021C105.446 9.57021 105.446 9.12086 105.446 8.87933C105.446 8.47191 105.118 8.33246 102.813 8.11007L102.375 8.0727C101.507 7.99887 100.41 7.90499 99.9078 7.8658C95.6792 7.51945 93.7907 6.33001 93.7907 4.01037C93.7907 1.57407 97.0036 0 101.977 0C106.034 0 108.648 0.967959 109.744 2.87927C110.004 3.32387 110.179 3.8053 110.26 4.30295L110.296 4.55906H104.911L104.889 4.35308C104.867 4.19212 104.792 4.04109 104.671 3.92105C104.47 3.67678 103.834 3.27301 101.858 3.27301C99.4321 3.27301 99.0983 3.55374 99.0983 3.85634C99.0983 4.26011 99.8645 4.40321 102.32 4.64109C103.344 4.71674 104.99 4.86987 105.554 4.93185C109.099 5.28002 110.681 6.44029 110.681 8.69522C110.682 10.5865 109.228 12.8432 102.297 12.8432ZM94.2533 8.6779C94.3036 8.9785 94.39 9.27308 94.5117 9.55654C95.4489 11.4606 97.9961 12.3875 102.297 12.3875C105.893 12.3875 110.182 11.7495 110.182 8.69522C110.182 6.69641 108.782 5.70658 105.501 5.38484C104.937 5.32286 103.301 5.17065 102.279 5.09409C99.6614 4.83706 98.5965 4.70034 98.5965 3.85634C98.5965 2.98317 99.7439 2.81729 101.86 2.81729C103.533 2.81729 104.613 3.09072 105.071 3.64215C105.196 3.77795 105.291 3.93463 105.349 4.10334H109.712C109.625 3.75079 109.486 3.41037 109.3 3.09072C108.293 1.34165 105.833 0.455724 101.979 0.455724C97.3123 0.455724 94.2965 1.85115 94.2965 4.01037C94.2965 6.07024 95.9889 7.08742 99.954 7.4119C100.458 7.45109 101.554 7.54497 102.424 7.61971L102.865 7.65708C105.006 7.86124 105.951 7.98885 105.951 8.87933C105.951 9.83817 104.73 10.0259 102.62 10.0259C100.669 10.0259 99.4362 9.7607 98.9605 9.23844C98.8137 9.07192 98.7031 8.8817 98.6337 8.6779H94.2533ZM120.246 12.8277C114.991 12.8277 112.091 10.9037 112.091 7.40916V0.183201H117.177V7.40916C117.177 8.60772 118.363 9.29495 120.427 9.29495C122.401 9.29495 123.626 8.57764 123.626 7.42466V0.183201H128.661V7.79197C128.666 10.9921 125.596 12.8277 120.243 12.8277H120.246ZM112.595 0.638925V7.40916C112.595 11.7276 117.385 12.372 120.246 12.372C123.205 12.372 128.165 11.7768 128.165 7.79197V0.638925H124.138V7.42466C124.138 8.8374 122.684 9.75067 120.436 9.75067C118.086 9.75067 116.682 8.87568 116.682 7.40916V0.638925H112.595ZM149.994 12.6591H145.193V7.02636L142.471 12.6591H138.284L135.589 7.03729V12.6591H130.771V0.183201H137.108L140.4 7.0619L143.853 0.183201H150L149.994 12.6591ZM145.697 12.2034H149.491V0.638925H144.173L140.384 8.18481L136.774 0.638925H131.271V12.2034H135.082V4.84435L138.605 12.2061H142.129L145.691 4.85529L145.697 12.2034ZM4.58526 0.411063H0V12.4312H12.6703V9.23115H4.58526V0.411063ZM21.9254 0.13763C16.0726 0.13763 12.9945 2.64867 12.9945 6.33548C12.9945 10.5008 16.2256 12.6135 21.9254 12.6135C28.2002 12.6135 30.8392 10.1636 30.8392 6.33548C30.8392 2.44815 27.8619 0.135804 21.9254 0.135804V0.13763ZM21.9083 3.26116C22.3067 3.25943 22.705 3.28048 23.1005 3.32405L17.9745 7.96423C17.7319 7.46759 17.6137 6.92847 17.6282 6.38561C17.6282 4.49982 18.6773 3.25934 21.9083 3.25934V3.26116ZM21.9254 9.53922C21.5416 9.54077 21.1579 9.52126 20.7766 9.48089L25.9116 4.8325C26.1451 5.32094 26.2569 5.84995 26.2389 6.38196C26.2389 8.21671 25.2723 9.5374 21.9254 9.5374V9.53922ZM39.924 7.89861H44.6432C44.5738 8.19511 44.429 8.47282 44.2204 8.7098C43.242 9.4313 41.9934 9.78239 40.7356 9.68961C40.1025 9.75095 39.4623 9.68833 38.8583 9.50604C38.2542 9.32375 37.7005 9.02616 37.2347 8.63324C36.7577 7.99969 36.5309 7.23881 36.5914 6.47402C36.5142 5.67258 36.7607 4.87306 37.2851 4.22365C37.9446 3.54918 39.0612 3.25843 40.7024 3.25843C41.7466 3.18014 42.7895 3.42295 43.6626 3.94748C43.9377 4.14536 44.1435 4.41132 44.2546 4.7131H48.6314C48.5996 4.2159 48.4676 3.7281 48.2418 3.27392C47.1937 1.34439 44.757 0.195962 40.6138 0.195962C37.0102 0.195962 34.5917 1.19126 33.2557 2.69242C32.3732 3.7764 31.9202 5.09809 31.9699 6.44394C31.9128 7.82014 32.354 9.17564 33.2264 10.3039C34.5465 11.8534 36.8975 12.6154 39.7227 12.6154C41.6011 12.7339 43.4665 12.2577 44.9996 11.2682L45.1185 12.4312H48.7543V5.31101H39.924V7.89861ZM59.0736 0.134893C53.2217 0.134893 50.1427 2.64593 50.1427 6.33274C50.1427 10.4981 53.3727 12.6108 59.0736 12.6108C65.3494 12.6108 67.9883 10.1608 67.9883 6.33274C67.9883 2.44815 65.0111 0.135804 59.0736 0.135804V0.134893ZM59.0575 3.25843C59.4454 3.25733 59.8331 3.27748 60.2184 3.31858L55.1126 7.94327C54.8776 7.45209 54.7632 6.92063 54.7773 6.38561C54.7733 4.49982 55.8265 3.25934 59.0575 3.25934V3.25843ZM59.0736 9.53649C58.6795 9.53794 58.2858 9.51725 57.8945 9.47451L63.0466 4.80971C63.289 5.30463 63.4049 5.84266 63.3859 6.38378C63.3879 8.2167 62.4254 9.5374 59.0736 9.5374V9.53649Z" fill="#0B090A"></path>
</svg>
