<?xml version="1.0" encoding="UTF-8"?>
<svg xmlns="http://www.w3.org/2000/svg" width="130" height="29" viewBox="0 0 130 29" fill="none">
  <path d="M0 28.5226H29.2767V1.10889e-08H0V28.5226ZM23.6416 11.517H17.4553V5.4899H23.6416V11.517ZM5.63385 5.4899H11.8237V17.0057H23.6416V23.0327H5.63385V5.4899ZM48.3414 1.10889e-08C45.4463 1.10889e-08 42.6161 0.836439 40.2088 2.40357C37.8015 3.97059 35.9252 6.19791 34.8173 8.80375C33.7094 11.4097 33.4195 14.2772 33.9843 17.0436C34.5492 19.81 35.9434 22.3511 37.9905 24.3456C40.0377 26.3401 42.646 27.6984 45.4856 28.2486C48.3251 28.7989 51.2684 28.5165 53.9433 27.4371C56.6181 26.3576 58.9043 24.5298 60.5128 22.1844C62.1213 19.8393 62.9798 17.082 62.9798 14.2613C62.9752 10.4804 61.4315 6.85554 58.6872 4.18198C55.9431 1.50842 52.2224 0.00444798 48.3414 1.10889e-08ZM48.3414 23.0327C46.5607 23.0327 44.8201 22.5183 43.3395 21.5545C41.8589 20.5906 40.7049 19.2208 40.0234 17.6181C39.342 16.0152 39.1637 14.2516 39.5111 12.5502C39.8585 10.8487 40.716 9.28569 41.9751 8.05905C43.2343 6.8323 44.8384 5.99697 46.585 5.65848C48.3314 5.3201 50.1417 5.4938 51.7868 6.15765C53.432 6.82151 54.8381 7.94573 55.8274 9.38821C56.8167 10.8307 57.3447 12.5265 57.3447 14.2613C57.3411 16.5866 56.3913 18.8156 54.7037 20.4598C53.016 22.1039 50.7281 23.0292 48.3414 23.0327ZM115.363 1.10889e-08C112.467 -0.000111188 109.638 0.836105 107.23 2.40301C104.823 3.96992 102.946 6.19713 101.838 8.80297C100.73 11.4089 100.439 14.2764 101.005 17.0429C101.569 19.8093 102.963 22.3506 105.011 24.3452C107.058 26.3397 109.666 27.6981 112.506 28.2485C115.346 28.7989 118.288 28.5166 120.963 27.4372C123.638 26.3578 125.925 24.5299 127.533 22.1846C129.142 19.8394 130 17.082 130 14.2613C129.995 10.4805 128.452 6.85587 125.708 4.18231C122.964 1.50886 119.243 0.00478157 115.363 1.10889e-08ZM115.363 23.0327C113.582 23.0329 111.841 22.5187 110.361 21.5551C108.88 20.5913 107.726 19.2215 107.044 17.6187C106.363 16.016 106.184 14.2524 106.531 12.5508C106.878 10.8493 107.736 9.28624 108.995 8.05938C110.255 6.83263 111.859 5.99708 113.605 5.65859C115.351 5.31999 117.162 5.49368 118.807 6.15754C120.452 6.8214 121.858 7.94562 122.848 9.3881C123.837 10.8306 124.365 12.5265 124.365 14.2613C124.362 16.5864 123.412 18.8152 121.725 20.4593C120.037 22.1035 117.75 23.0289 115.363 23.0327ZM81.8511 1.10889e-08C78.9567 1.10889e-08 76.1262 0.836439 73.7189 2.40357C71.3116 3.97059 69.4355 6.19791 68.3275 8.80375C67.2196 11.4097 66.9297 14.2772 67.4945 17.0436C68.0593 19.81 69.4535 22.3511 71.5007 24.3456C73.5479 26.3401 76.1563 27.6984 78.9955 28.2486C81.8351 28.7989 84.7785 28.5165 87.4529 27.4371C90.1284 26.3576 92.4141 24.5298 94.0225 22.1844C95.631 19.8393 96.4894 17.082 96.4894 14.2613C96.4849 10.4804 94.9414 6.85554 92.1975 4.18198C89.4535 1.50842 85.7327 0.00444798 81.8511 1.10889e-08ZM81.8511 23.0327C80.1924 23.0336 78.5657 22.5878 77.1499 21.7445C75.7347 20.9013 74.5859 19.6935 73.8307 18.2543C73.0755 16.8152 72.7431 15.2008 72.8702 13.5892C72.9973 11.9777 73.579 10.4317 74.5512 9.12189C75.5232 7.81207 76.8478 6.78949 78.3787 6.16688C79.9097 5.54417 81.5878 5.3459 83.227 5.59365C84.8663 5.8414 86.4041 6.52572 87.6695 7.571C88.9349 8.61616 89.8788 9.98179 90.3986 11.517H81.8511V17.0057H90.3986C89.8035 18.7575 88.6578 20.2824 87.1246 21.3642C85.5902 22.446 83.7457 23.0298 81.8511 23.0327Z" fill="#0B090A"></path>
</svg>
